FFmpeg version SVN-r25716, Copyright (c) 2000-2010 the FFmpeg developers  built on Nov 10 2010 12:23:18 with gcc 4.1.2 20080704 (Red Hat 4.1.2-48)  configuration: --enable-libmp3lame --enable-shared --disable-mmx --arch=x86_64  libavutil     50.33. 0 / 50.33. 0  libavcore      0.12. 1 /  0.12. 1  libavcodec    52.94. 4 / 52.94. 4  libavformat   52.84. 0 / 52.84. 0  libavdevice   52. 2. 2 / 52. 2. 2  libavfilter    1.59. 0 /  1.59. 0  libswscale     0.12. 0 /  0.12. 0Input #0, mov,mp4,m4a,3gp,3g2,mj2, from '/RAID10/data/converted_video_files/41104.mov':  Metadata:    major_brand     : qt      minor_version   : 537199360    compatible_brands: qt    Duration: 00:00:02.80, start: 0.000000, bitrate: 34197 kb/s    Stream #0.0(eng): Video: mpeg4, yuv420p, 960x832 [PAR 1:1 DAR 15:13], 34194 kb/s, 25 fps, 25 tbr, 600 tbn, 25 tbc[buffer @ 0x13c0c8f0] w:960 h:832 pixfmt:yuv420pOutput #0, flv, to '/RAID10/data/converted_video_files/41104.flv':  Metadata:    encoder         : Lavf52.84.0    Stream #0.0(eng): Video: flv, yuv420p, 960x832 [PAR 1:1 DAR 15:13], q=2-31, 600 kb/s, 1k tbn, 24 tbcStream mapping:  Stream #0.0 -> #0.0Press [q] to stop encodingframe=   11 fps=  0 q=21.6 size=     812kB time=0.46 bitrate=14525.8kbits/s    frame=   21 fps= 19 q=31.0 size=     927kB time=0.88 bitrate=8681.4kbits/s dup=0 drop=1    frame=   35 fps= 22 q=31.0 size=    1063kB time=1.46 bitrate=5973.2kbits/s dup=0 drop=1    frame=   50 fps= 24 q=31.0 size=    1234kB time=2.08 bitrate=4854.2kbits/s dup=0 drop=2    frame=   67 fps= 25 q=31.0 size=    1392kB time=2.79 bitrate=4085.4kbits/s dup=0 drop=3    frame=   67 fps= 25 q=31.0 Lsize=    1392kB time=2.79 bitrate=4085.4kbits/s dup=0 drop=3    video:1391kB audio:0kB global headers:0kB muxing overhead 0.089995%